<svg width="29" height="22" viewBox="0 0 29 22" fill="none" xmlns="http://www.w3.org/2000/svg">
<path d="M8.92556 10.5069C11.5466 10.5069 13.679 8.37453 13.679 5.75344C13.679 3.13235 11.5466 1 8.92556 1C6.30447 1 4.17212 3.13241 4.17212 5.7535C4.17212 8.37459 6.30447 10.5069 8.92556 10.5069ZM8.92556 2.69837C10.6102 2.69837 11.9806 4.06889 11.9806 5.7535C11.9806 7.43811 10.6102 8.80858 8.92556 8.80858C7.24095 8.80858 5.87049 7.43805 5.87049 5.75344C5.87049 4.06883 7.24095 2.69837 8.92556 2.69837Z" fill="#929292" stroke="white" stroke-width="0.4"/>
<path d="M20.5313 10.5069C23.1524 10.5069 25.2848 8.37453 25.2848 5.75344C25.2848 3.13235 23.1524 1 20.5313 1C17.9102 1 15.7778 3.13241 15.7778 5.7535C15.7778 8.37459 17.9102 10.5069 20.5313 10.5069ZM20.5313 2.69837C22.2159 2.69837 23.5865 4.06889 23.5865 5.7535C23.5865 7.43811 22.2159 8.80858 20.5313 8.80858C18.8467 8.80858 17.4762 7.43805 17.4762 5.75344C17.4762 4.06883 18.8467 2.69837 20.5313 2.69837Z" fill="#929292" stroke="white" stroke-width="0.4"/>
<path d="M20.5312 12.2246C18.316 12.2246 16.2155 13.1542 14.7261 14.7545C13.2781 13.1989 11.2136 12.2246 8.92571 12.2246C4.55547 12.2246 1 15.7801 1 20.1503V20.9995H28.4569V20.1503C28.4569 15.7801 24.9014 12.2246 20.5312 12.2246ZM2.75605 19.3011C3.13343 16.5453 5.3207 14.3583 8.07653 13.9808V17.8858H9.77489V13.9808C12.5307 14.3582 14.718 16.5453 15.0954 19.3011H2.75605ZM16.8062 19.3011C16.6841 18.1596 16.3186 17.0899 15.7628 16.1448C16.7585 14.9614 18.1584 14.1916 19.682 13.9814V17.8859H21.3804V13.9808C24.1362 14.3582 26.3235 16.5453 26.7009 19.3011H16.8062Z" fill="#929292" stroke="white" stroke-width="0.4"/>
</svg>
