<svg width="40" height="40" viewBox="0 0 40 40" fill="none" xmlns="http://www.w3.org/2000/svg">
<circle cx="20" cy="20" r="20" fill="#EBEBEB"/>
<path d="M26.9231 11H13.0769C12.5261 11 11.9978 11.2276 11.6083 11.6326C11.2188 12.0377 11 12.5871 11 13.16V26.84C11 27.4129 11.2188 27.9623 11.6083 28.3674C11.9978 28.7724 12.5261 29 13.0769 29H26.9231C27.4739 29 28.0022 28.7724 28.3917 28.3674C28.7812 27.9623 29 27.4129 29 26.84V13.16C29 12.5871 28.7812 12.0377 28.3917 11.6326C28.0022 11.2276 27.4739 11 26.9231 11ZM14.5135 18.4772C14.4613 18.3454 14.4479 18.2005 14.4751 18.0608C14.5022 17.921 14.5685 17.7928 14.6658 17.6924L16.7427 15.5324C16.8751 15.4144 17.0455 15.3528 17.2197 15.3598C17.394 15.3668 17.5592 15.4419 17.6825 15.5702C17.8058 15.6984 17.8781 15.8703 17.8848 16.0515C17.8915 16.2327 17.8323 16.4099 17.7188 16.5476L16.8258 17.48H24.5C24.6836 17.48 24.8597 17.5559 24.9895 17.6909C25.1194 17.8259 25.1923 18.009 25.1923 18.2C25.1923 18.391 25.1194 18.5741 24.9895 18.7091C24.8597 18.8441 24.6836 18.92 24.5 18.92H15.1538C15.017 18.9203 14.8831 18.8784 14.7691 18.7996C14.6551 18.7208 14.5662 18.6086 14.5135 18.4772ZM25.6804 22.6676L23.6035 24.8276C23.5414 24.903 23.465 24.9642 23.3791 25.0074C23.2932 25.0506 23.1997 25.0749 23.1043 25.0787C23.009 25.0826 22.9139 25.0659 22.8251 25.0297C22.7362 24.9935 22.6556 24.9386 22.5881 24.8684C22.5206 24.7982 22.4678 24.7143 22.433 24.6219C22.3982 24.5295 22.3821 24.4306 22.3858 24.3315C22.3895 24.2323 22.4129 24.135 22.4544 24.0457C22.496 23.9564 22.5548 23.8769 22.6273 23.8124L23.5204 22.88H15.8462C15.6625 22.88 15.4865 22.8041 15.3566 22.6691C15.2268 22.5341 15.1538 22.351 15.1538 22.16C15.1538 21.969 15.2268 21.7859 15.3566 21.6509C15.4865 21.5159 15.6625 21.44 15.8462 21.44H25.1923C25.3292 21.4397 25.4631 21.4816 25.5771 21.5604C25.691 21.6392 25.78 21.7514 25.8327 21.8828C25.8848 22.0146 25.8982 22.1595 25.8711 22.2992C25.844 22.439 25.7776 22.5672 25.6804 22.6676Z" fill="#232323"/>
</svg>
