<svg width="22" height="17" viewBox="0 0 22 17" fill="none" xmlns="http://www.w3.org/2000/svg">
<path d="M12.8565 3.21514L9.54917 6.9905C9.45557 7.0841 9.45557 7.24011 9.48677 7.36491C9.54917 7.48972 9.64278 7.55212 9.79878 7.55212H11.6397L8.76914 10.3602C8.64434 10.485 8.64434 10.7034 8.76914 10.8282C8.83154 10.8907 8.92515 10.9219 9.01875 10.9219C9.11235 10.9219 9.17476 10.8907 9.26836 10.8282L12.7005 7.42731C12.7941 7.33371 12.8253 7.1777 12.7629 7.0529C12.7005 6.92809 12.6069 6.83449 12.4509 6.83449H10.5476L13.3557 3.62076C13.4805 3.52716 13.4493 3.30875 13.3245 3.18394C13.1685 3.05914 12.9501 3.09034 12.8565 3.21514Z" fill="#929292" stroke="#929292" stroke-width="0.4"/>
<path d="M19.6583 1H8.98752C8.26989 1 7.67707 1.56162 7.67707 2.27925V5.33697H2.31045C1.59282 5.33697 1 5.8986 1 6.61623V12.2325C1 12.9501 1.59282 13.5117 2.31045 13.5117H3.4649V15.7894C3.4649 15.9142 3.5585 16.039 3.65211 16.1014C3.68331 16.1326 3.74571 16.1326 3.77691 16.1326C3.87051 16.1326 3.93292 16.1014 3.99532 16.039L6.86583 13.5117H12.7629C13.4805 13.5117 14.0733 12.9501 14.0733 12.2325V9.14353H15.103L17.9735 11.702C18.0671 11.7956 18.2231 11.7956 18.3479 11.7644C18.4727 11.7332 18.5351 11.5772 18.5351 11.4524V9.17473H19.6895C20.4072 9.17473 21 8.61311 21 7.89548V2.27925C20.9688 1.59282 20.376 1 19.6583 1ZM20.3136 7.89548C20.3136 8.23869 20.0328 8.4883 19.6895 8.4883H18.2231C18.0359 8.4883 17.8799 8.64431 17.8799 8.83151V10.7036L15.4774 8.5819C15.415 8.5195 15.3214 8.4883 15.259 8.4883H13.7613C13.5741 8.4883 13.4181 8.64431 13.4181 8.83151V12.2637C13.4181 12.6069 13.1373 12.8565 12.7941 12.8565H6.74103C6.64743 12.8565 6.58502 12.8877 6.52262 12.9501L4.12012 15.0718V13.1997C4.12012 13.0125 3.96412 12.8565 3.77691 12.8565H2.31045C1.96724 12.8565 1.68643 12.5757 1.68643 12.2637V6.64743C1.68643 6.30421 1.96724 6.0546 2.31045 6.0546H7.86427H8.02028C8.20749 6.0546 8.36349 5.8986 8.36349 5.71139V2.31045C8.36349 1.96724 8.64431 1.68643 8.98752 1.68643H19.6895C20.0328 1.68643 20.3136 1.96724 20.3136 2.31045V7.89548Z" fill="#929292" stroke="#929292" stroke-width="0.4"/>
</svg>
