<svg width="16" height="16" viewBox="0 0 16 16" fill="none" xmlns="http://www.w3.org/2000/svg">
<path d="M8 16C3.59 16 0 12.41 0 8C0 3.59 3.59 0 8 0C12.41 0 16 3.59 16 8C16 12.41 12.41 16 8 16ZM8 0.485C3.855 0.485 0.485 3.855 0.485 8C0.485 12.145 3.8575 15.515 8 15.515C12.145 15.515 15.515 12.1425 15.515 8C15.515 3.855 12.145 0.485 8 0.485Z" fill="white"/>
<path d="M11.2327 13.423C11.2027 13.423 11.1727 13.4205 11.1402 13.418C10.9027 13.3905 10.6952 13.258 10.5702 13.0555C10.1277 12.338 9.83522 11.198 9.82522 11.148C9.74772 10.773 9.55522 10.5655 9.23022 10.5055C8.90772 10.4455 8.65272 10.278 8.50772 10.0305C8.30772 9.68546 7.95022 9.46546 7.68522 9.34296C7.32772 9.17546 7.10022 8.82296 7.08772 8.42046L7.07772 8.09296L6.67272 7.75796C6.62772 7.72046 6.59772 7.66796 6.58772 7.61296L6.48522 7.01296C6.43022 6.68796 6.51022 6.35046 6.70772 6.08796L7.40272 5.15046C7.46272 5.07046 7.50522 4.97546 7.52272 4.87546L7.71772 3.80796C7.73022 3.74296 7.76772 3.68296 7.82522 3.64796C7.88272 3.61046 7.95022 3.60046 8.01522 3.61796C8.65522 3.77796 9.05772 4.41296 9.27272 4.87296C9.59522 4.09546 9.46022 3.22296 9.45772 3.21046C9.44022 3.09796 9.50272 2.98796 9.61022 2.94546C9.79522 2.87296 10.0452 2.90296 10.3552 3.02796C10.4427 3.06296 10.5377 3.06546 10.6202 3.03546L11.3702 2.74546C10.9452 1.79546 10.9852 0.972956 10.9877 0.935456C10.9952 0.802956 11.1127 0.697956 11.2427 0.705456C11.3752 0.712956 11.4777 0.827956 11.4727 0.960456C11.4727 0.967956 11.4352 1.84046 11.9202 2.76546C11.9527 2.82546 11.9577 2.89796 11.9327 2.96296C11.9077 3.02796 11.8577 3.07796 11.7927 3.10296L10.7952 3.48546C10.5952 3.56296 10.3752 3.55796 10.1702 3.47546C10.0877 3.44046 10.0202 3.42046 9.96272 3.40796C9.99272 3.87296 9.97022 4.83546 9.42522 5.58046C9.37022 5.65546 9.27772 5.69296 9.18772 5.67546C9.09772 5.66046 9.02272 5.59296 8.99772 5.50296C8.91272 5.20796 8.61272 4.48546 8.14022 4.19046L8.00022 4.96046C7.96772 5.13296 7.89772 5.29796 7.79272 5.43796L7.09772 6.37546C6.98022 6.53296 6.93272 6.73546 6.96522 6.93046L7.05272 7.44296L7.47522 7.79046C7.53022 7.83546 7.56272 7.90046 7.56272 7.97046L7.57522 8.41046C7.58022 8.62796 7.70272 8.81546 7.89272 8.90546C8.22022 9.05796 8.66272 9.33546 8.92772 9.78796C8.99772 9.90796 9.14022 9.99796 9.32022 10.0305C9.84022 10.1255 10.1877 10.4855 10.3002 11.0405C10.3002 11.0405 10.5827 12.1455 10.9877 12.8005C11.0502 12.903 11.1477 12.928 11.2002 12.9355C11.2927 12.9455 11.3852 12.913 11.4502 12.848C11.9577 12.3355 12.2677 11.8855 12.3052 11.608C12.3077 11.5905 12.3127 11.5705 12.3202 11.553L12.7652 10.4055C12.8027 10.308 12.8252 10.2055 12.8302 10.1055C12.8527 9.62046 12.9402 8.41796 13.2552 7.72046C13.3427 7.52546 13.5102 7.38546 13.7152 7.33546C13.9152 7.28546 14.1227 7.33046 14.2852 7.45796C14.6977 7.78046 14.9527 8.18296 15.0377 8.62546L15.6077 8.18046C15.7127 8.09796 15.8652 8.11796 15.9477 8.22296C16.0302 8.32796 16.0102 8.48046 15.9052 8.56296L14.9652 9.29546C14.8877 9.35546 14.7827 9.36296 14.6977 9.31546C14.6127 9.26796 14.5652 9.17546 14.5752 9.07796C14.6377 8.48046 14.2902 8.07296 13.9877 7.83546C13.9277 7.78796 13.8652 7.79546 13.8327 7.80296C13.7727 7.81796 13.7227 7.85796 13.6977 7.91546C13.4102 8.55546 13.3327 9.76796 13.3152 10.1255C13.3077 10.2805 13.2752 10.433 13.2177 10.578L12.7827 11.7005C12.7177 12.0905 12.3852 12.5905 11.7952 13.1855C11.6427 13.3405 11.4427 13.423 11.2327 13.423Z" fill="white"/>
<path d="M4.07746 3.17816C4.01496 3.17816 3.95246 3.15316 3.90496 3.10566C3.81996 3.02066 3.81246 2.88566 3.88496 2.79066C4.30996 2.22566 4.98746 1.17316 4.98746 0.750656C4.98746 0.615656 5.09496 0.508156 5.22996 0.508156C5.36496 0.508156 5.47246 0.618156 5.47246 0.750656C5.47246 1.15066 5.13996 1.77566 4.82246 2.27816C5.53496 2.00566 6.32496 1.86816 6.76996 1.80566L6.39996 1.09066C6.35496 1.00316 6.36746 0.898156 6.42996 0.823156L7.00746 0.130656C7.09246 0.0281562 7.24496 0.0131562 7.34996 0.0981562C7.45246 0.183156 7.46746 0.335656 7.38246 0.440656L6.90746 1.01066L7.36496 1.89316C7.40246 1.96566 7.39996 2.05066 7.36246 2.12066C7.32496 2.19066 7.25246 2.23816 7.17246 2.24566C7.15246 2.24816 5.17496 2.43816 4.22246 3.13066C4.17746 3.16316 4.12746 3.17816 4.07746 3.17816Z" fill="white"/>
<path d="M0.250044 8.60513C0.132544 8.60513 0.0275441 8.51764 0.0100441 8.39764C-0.00995587 8.26514 0.0825441 8.14264 0.215044 8.12264C0.540044 8.07514 0.750044 7.60764 0.815044 7.39764C0.800044 7.19014 0.892544 6.88764 1.33754 6.54264C1.46504 6.44514 1.55004 6.30514 1.58004 6.14764L1.82504 4.83014L1.77254 3.07264C1.76754 2.93764 1.87254 2.82764 2.00754 2.82264C2.13754 2.81514 2.25254 2.92264 2.25754 3.05764L2.31254 4.84264C2.31254 4.86014 2.31254 4.87764 2.30754 4.89514L2.05754 6.24014C2.00754 6.51264 1.85754 6.75764 1.63504 6.92764C1.36504 7.13514 1.28504 7.30014 1.30004 7.37764C1.30504 7.41264 1.30504 7.44764 1.29504 7.48264C1.28504 7.52514 1.02254 8.49763 0.285044 8.60513C0.275044 8.60263 0.262544 8.60513 0.250044 8.60513Z" fill="white"/>
<path d="M5.74009 15.6655C5.72009 15.6655 5.70009 15.663 5.68009 15.658C5.55009 15.6255 5.47259 15.493 5.50509 15.363C5.83759 14.073 4.65509 13.338 4.13009 13.0805C3.96759 13.0005 3.82759 12.878 3.71009 12.7105C3.38759 12.2555 2.98009 11.953 2.49259 11.808C1.95509 11.648 1.57259 11.1705 1.54259 10.6155L1.53259 10.453C1.48509 10.0855 1.37509 9.84551 1.22759 9.79051C1.04509 9.72301 0.740093 9.91801 0.622593 10.023C0.522593 10.113 0.370093 10.103 0.280093 10.0055C0.190093 9.90551 0.197593 9.75301 0.297593 9.66301C0.355093 9.61051 0.887593 9.14801 1.39509 9.33551C1.73009 9.45801 1.93759 9.82051 2.01509 10.408L2.02509 10.588C2.04509 10.938 2.28759 11.2405 2.62759 11.343C3.03509 11.463 3.62259 11.7505 4.10259 12.4305C4.17259 12.5305 4.25259 12.6005 4.34009 12.643C4.83259 12.883 6.40509 13.8005 5.97259 15.4805C5.94759 15.593 5.84759 15.6655 5.74009 15.6655Z" fill="white"/>
</svg>
